<?xml version="1.0" encoding="UTF-8"?>
<svg id="Layer_1" data-name="Layer 1" xmlns="http://www.w3.org/2000/svg" viewBox="0 0 500 216.54">
  <defs>
    <style>
      .cls-1 {
        letter-spacing: -.02em;
      }

      .cls-2 {
        fill: #fff;
      }

      .cls-3 {
        fill: #ffca76;
      }

      .cls-4, .cls-5, .cls-6 {
        fill: #2d2a33;
      }

      .cls-5 {
        stroke: #2d2a33;
        stroke-miterlimit: 10;
        stroke-width: 3px;
      }

      .cls-6 {
        font-family: LexendDeca-Regular, 'Lexend Deca';
        font-size: 25.28px;
        font-variation-settings: 'wght' 400;
      }
    </style>
  </defs>
  <g>
    <g>
      <path class="cls-3" d="m164.23,98.67c-1.02-9.49-11.17-16.63-24.73-18.67,5.61-12.52,5.07-24.91-2.36-30.9-7.43-5.99-19.65-3.86-30.69,4.29-4.89-12.82-14.03-21.2-23.52-20.18s-16.63,11.17-18.67,24.73c-12.52-5.61-24.91-5.07-30.9,2.36-5.99,7.43-3.86,19.65,4.29,30.69-12.82,4.89-21.2,14.03-20.18,23.52s11.17,16.63,24.73,18.67c-5.61,12.52-5.07,24.91,2.36,30.9,7.43,5.99,19.65,3.86,30.69-4.29,4.89,12.82,14.03,21.2,23.52,20.18,9.49-1.02,16.63-11.17,18.67-24.73,12.52,5.61,24.91,5.07,30.9-2.36,5.99-7.43,3.86-19.65-4.29-30.69,12.82-4.89,21.2-14.03,20.18-23.52Z"/>
      <path class="cls-4" d="m97.21,182c-8.96,0-17.62-7.29-22.83-19.22-11.54,7.7-23.53,8.85-31.03,2.81-7.5-6.04-8.94-18-3.87-30.92-13.61-2.72-22.9-10.38-23.93-19.95-1.03-9.57,6.41-19.05,19.12-24.6-7.7-11.54-8.85-23.53-2.81-31.03,6.04-7.5,18-8.94,30.92-3.88,2.71-13.61,10.38-22.9,19.95-23.93,9.58-1.04,19.05,6.41,24.6,19.12,11.54-7.7,23.53-8.85,31.03-2.81,7.5,6.04,8.94,18,3.87,30.92,13.61,2.71,22.9,10.38,23.93,19.95h0c1.03,9.57-6.41,19.05-19.12,24.6,7.7,11.54,8.85,23.53,2.81,31.03-6.04,7.5-18,8.93-30.92,3.88-2.71,13.61-10.38,22.9-19.95,23.93-.59.06-1.18.1-1.77.1Zm-21.06-25.27l.91,2.38c4.73,12.41,13.18,19.84,21.5,18.94,8.33-.9,14.99-9.96,16.96-23.09l.38-2.52,2.33,1.04c12.12,5.42,23.35,4.71,28.6-1.81,5.25-6.52,3.55-17.64-4.33-28.33l-1.52-2.05,2.38-.91c12.41-4.73,19.84-13.17,18.94-21.5h0c-.9-8.33-9.96-14.99-23.09-16.96l-2.52-.38,1.04-2.33c5.42-12.12,4.71-23.35-1.81-28.6-6.52-5.25-17.64-3.55-28.33,4.33l-2.05,1.51-.91-2.38c-4.73-12.41-13.17-19.84-21.5-18.94-8.33.9-14.99,9.96-16.96,23.09l-.38,2.52-2.33-1.04c-12.12-5.42-23.35-4.71-28.6,1.81-5.25,6.52-3.55,17.64,4.34,28.33l1.51,2.05-2.38.91c-12.41,4.73-19.84,13.17-18.94,21.5.9,8.33,9.96,14.99,23.09,16.96l2.52.38-1.04,2.33c-5.42,12.12-4.71,23.35,1.81,28.6,6.52,5.25,17.64,3.55,28.33-4.33l2.05-1.51Z"/>
    </g>
    <g>
      <circle class="cls-2" cx="90.85" cy="106.59" r="23.3"/>
      <path class="cls-4" d="m90.85,131.83c-13.92,0-25.24-11.32-25.24-25.24s11.32-25.24,25.24-25.24,25.24,11.32,25.24,25.24-11.32,25.24-25.24,25.24Zm0-46.6c-11.78,0-21.36,9.58-21.36,21.36s9.58,21.36,21.36,21.36,21.36-9.58,21.36-21.36-9.58-21.36-21.36-21.36Z"/>
    </g>
    <g>
      <g>
        <path class="cls-3" d="m44.51,94.4c1.95-.64,74.48-25.11,74.48-25.11"/>
        <path class="cls-4" d="m44.82,95.32l-.61-1.84c1.92-.63,73.74-24.87,74.47-25.11l.62,1.84c-.73.24-72.55,24.48-74.48,25.11Z"/>
      </g>
      <g>
        <path class="cls-3" d="m52.54,119.51c1.95-.64,74.48-25.11,74.48-25.11"/>
        <path class="cls-4" d="m52.84,120.43l-.61-1.84c1.92-.63,73.74-24.86,74.47-25.11l.62,1.84c-.73.24-72.55,24.48-74.48,25.11Z"/>
      </g>
      <g>
        <path class="cls-3" d="m64.4,143.89c1.95-.64,74.48-25.11,74.48-25.11"/>
        <path class="cls-4" d="m64.7,144.81l-.61-1.84c1.92-.63,73.74-24.86,74.47-25.11l.62,1.84c-.73.24-72.55,24.48-74.48,25.11Z"/>
      </g>
      <g>
        <path class="cls-3" d="m129.52,137.31c-.64-1.95-24.03-74.83-24.03-74.83"/>
        <path class="cls-4" d="m128.6,137.61c-.63-1.93-23.79-74.11-24.03-74.84l1.85-.59c.23.73,23.39,72.9,24.02,74.83l-1.84.6Z"/>
      </g>
      <g>
        <path class="cls-3" d="m104.55,145.77c-.64-1.95-24.03-74.83-24.03-74.83"/>
        <path class="cls-4" d="m103.63,146.07c-.63-1.93-23.79-74.11-24.03-74.84l1.85-.59c.23.73,23.39,72.9,24.02,74.83l-1.84.6Z"/>
      </g>
      <g>
        <path class="cls-3" d="m77.89,150.7c-.64-1.95-24.03-74.83-24.03-74.83"/>
        <path class="cls-4" d="m76.97,151.01c-.63-1.93-23.79-74.11-24.03-74.84l1.85-.59c.23.73,23.39,72.9,24.02,74.83l-1.84.6Z"/>
      </g>
    </g>
  </g>
  <g>
    <path class="cls-5" d="m183.45,112.08c0-11.97,9.79-20.52,21.45-20.52,3.26,0,6.68.47,8.24.93,1.24.31,1.55.93,1.55,1.55,0,.93-.78,1.55-1.55,1.55-1.09,0-3.42-.93-8.24-.93-9.64,0-18.19,7.31-18.19,17.41,0,11.66,8.39,17.41,20.67,17.41s19.12-8.08,23.47-15.54l.62-1.09c.47-.78,1.24-.78,1.4-.78.93,0,1.55.62,1.55,1.71,0,.16-.16.62-.31.93l-.78,1.4c-.62,1.09-2.18,3.42-4.2,5.91-5.75,6.68-12.43,10.57-21.76,10.57-14.61,0-23.94-7.15-23.94-20.52Z"/>
    <path class="cls-5" d="m241.43,130.89v-28.76l-7.15,12.28c-.31.62-.93.78-1.4.78-.93,0-1.55-.62-1.55-1.55,0-.16,0-.62.47-1.4l9.64-16.48v-43.99c0-14.46,3.11-19.27,9.02-19.27,7.31,0,9.02,9.79,9.02,17.25,0,16.17-9.48,37.46-14.92,47.41v10.88c6.22-7.77,13.83-16.48,24.4-16.48,8.7,0,9.64,7.31,9.64,11.35v16.94c0,5.29,1.09,9.64,6.84,9.64,7.31,0,13.21-9.95,15.54-13.99l1.55-2.64c.47-.78,1.09-.78,1.4-.78.93,0,1.55.62,1.55,1.55,0,.16,0,.47-.16.78l-1.24,2.02c-4.04,6.68-9.79,16.17-18.65,16.17-7.15,0-9.95-4.97-9.95-12.12v-17.56c0-5.28-2.02-8.24-6.53-8.24-10.41,0-18.65,10.57-24.25,18.34v17.88c0,.93-.62,1.71-1.55,1.71-1.24,0-1.71-.78-1.71-1.71Zm14.92-81.14c0-6.68-1.55-14.14-6.06-14.14-5.75,0-5.75,11.81-5.75,15.39v39.48c2.64-5.13,11.81-24.4,11.81-40.72Z"/>
    <path class="cls-5" d="m302.36,112.08c0-12.28,8.39-20.52,20.98-20.52,8.86,0,15.7,4.2,18.96,11.04,3.89-.93,7.62-2.49,10.88-4.51.78-.47,1.09-.62,1.55-.62,1.09,0,1.55.78,1.55,1.55,0,.62-.31,1.09-.78,1.4-4.35,2.64-8.39,4.2-12.12,5.13.62,2.02.93,4.2.93,6.53,0,12.28-8.39,20.52-20.98,20.52s-20.98-8.24-20.98-20.52Zm38.7,0c0-2.18-.31-4.2-.93-6.06-1.55.31-3.11.31-4.51.31-7.62,0-14.92-2.64-14.92-9.02,0-.93.16-1.71.62-2.49-9.48.93-15.7,7.77-15.7,17.25,0,10.26,7.15,17.41,17.72,17.41s17.72-7.15,17.72-17.41Zm-2.33-9.02c-2.33-4.2-5.91-6.99-11.66-8.08h-.62c-1.4,0-2.49.93-2.49,2.02,0,3.89,3.89,6.22,11.66,6.22,1.09,0,2.18,0,3.11-.16Z"/>
    <path class="cls-5" d="m345.1,172.08c0-10.1,9.95-19.43,19.12-27.2v-50.98c-1.4,1.24-3.42,2.8-6.53,5.13-.93.78-2.02,1.55-2.95,1.55s-1.55-.62-1.55-1.55c0-.16,0-.93.93-1.55,4.35-2.95,6.53-4.82,10.1-8.24v-37.46c0-14.46,3.11-19.27,9.02-19.27,7.31,0,9.02,9.79,9.02,17.25,0,15.23-6.99,31.55-14.92,41.04v51.45c10.1-8.24,17.25-16.63,22.54-25.49l2.33-3.89c.47-.78,1.09-.78,1.4-.78.93,0,1.55.78,1.55,1.55,0,.16,0,.47-.16.78l-1.71,2.95c-7.62,13.06-17.88,22.85-25.96,28.76v23.47c0,7.77-3.58,14.61-11.35,14.61-6.22,0-10.88-4.97-10.88-12.12Zm19.12-2.49v-20.67c-5.75,4.82-15.86,13.52-15.86,23,0,5.91,3.42,9.17,7.62,9.17,5.75,0,8.24-5.13,8.24-11.5Zm14.92-119.84c0-6.68-1.55-14.14-6.06-14.14-5.75,0-5.75,11.81-5.75,15.39v34.66c4.51-5.91,11.81-20.83,11.81-35.91Z"/>
    <path class="cls-5" d="m384.42,172.08c0-10.1,9.95-19.43,19.12-27.2v-45.23l-8.55,14.77c-.31.62-.93.78-1.4.78-.93,0-1.55-.62-1.55-1.55,0-.16,0-.62.47-1.4l11.04-18.96v-41.5c0-14.46,3.11-19.27,9.02-19.27,7.31,0,9.02,9.79,9.02,17.25,0,15.23-9.48,34.97-14.92,44.3v48.19c10.1-8.24,17.25-16.63,22.54-25.49l2.33-3.89c.47-.78,1.09-.78,1.4-.78.93,0,1.55.78,1.55,1.55,0,.16,0,.47-.16.78l-1.71,2.95c-7.62,13.06-17.88,22.85-25.96,28.76v23.47c0,7.77-3.57,14.61-11.35,14.61-6.22,0-10.88-4.97-10.88-12.12Zm19.12-2.49v-20.67c-5.75,4.82-15.85,13.52-15.85,23,0,5.91,3.42,9.17,7.62,9.17,5.75,0,8.24-5.13,8.24-11.5Zm14.92-119.84c0-6.68-1.55-14.14-6.06-14.14-5.75,0-5.75,11.81-5.75,15.39v36.68c2.64-4.82,11.81-22.85,11.81-37.93Z"/>
    <path class="cls-5" d="m431.05,114.88c0-9.48,5.75-23.32,16.63-23.32,4.82,0,9.33,2.64,9.33,9.33,0,8.24-11.19,13.52-22.69,14.3,0,10.57,7.62,14.3,14.61,14.3,10.1,0,16.01-7.77,20.83-15.85l.47-.78c.47-.78,1.24-.78,1.4-.78.93,0,1.55.62,1.55,1.71,0,.16-.16.62-.31.93l-.78,1.4c-.62,1.24-1.4,2.49-3.26,4.97-4.82,6.53-11.81,11.5-19.43,11.5-11.66,0-18.34-7-18.34-17.72Zm22.69-13.99c0-3.42-1.87-6.22-6.06-6.22-6.99,0-12.12,8.86-13.21,17.25,8.39-.62,19.27-4.2,19.27-11.04Z"/>
  </g>
  <text class="cls-6" transform="translate(185.45 163.18)"><tspan x="0" y="0">C</tspan><tspan class="cls-1" x="17.16" y="0">off</tspan><tspan x="51.57" y="0">ee Shop</tspan></text>
</svg>