<?xml version="1.0" encoding="UTF-8"?>
<svg id="Layer_1" data-name="Layer 1" xmlns="http://www.w3.org/2000/svg" viewBox="0 0 500 500">
  <defs>
    <style>
      .cls-1 {
        letter-spacing: -.02em;
      }

      .cls-2 {
        fill: #fff;
      }

      .cls-3 {
        fill: #ffca76;
      }

      .cls-4, .cls-5, .cls-6 {
        fill: #2d2a33;
      }

      .cls-5 {
        font-family: LexendDeca-Regular, 'Lexend Deca';
        font-size: 36.31px;
        font-variation-settings: 'wght' 400;
      }

      .cls-6 {
        stroke: #2d2a33;
        stroke-miterlimit: 10;
        stroke-width: 3px;
      }
    </style>
  </defs>
  <g>
    <g>
      <path class="cls-3" d="m356.44,127.38c-1.59-14.69-17.29-25.75-38.29-28.91,8.68-19.39,7.85-38.57-3.66-47.84-11.51-9.27-30.43-5.98-47.52,6.63-7.57-19.85-21.72-32.83-36.42-31.24-14.69,1.59-25.75,17.29-28.91,38.29-19.39-8.68-38.57-7.85-47.84,3.66-9.27,11.51-5.98,30.43,6.63,47.52-19.85,7.57-32.83,21.72-31.24,36.42,1.59,14.69,17.29,25.75,38.29,28.91-8.68,19.39-7.85,38.57,3.66,47.84,11.51,9.27,30.43,5.98,47.52-6.63,7.57,19.85,21.72,32.83,36.42,31.24,14.69-1.59,25.75-17.29,28.91-38.29,19.39,8.68,38.57,7.85,47.84-3.66s5.98-30.43-6.63-47.52c19.85-7.57,32.83-21.72,31.24-36.42Z"/>
      <path class="cls-4" d="m252.67,256.39c-13.87,0-27.28-11.28-35.35-29.75-17.87,11.92-36.43,13.7-48.05,4.36-11.61-9.35-13.83-27.87-6-47.87-21.06-4.2-35.45-16.08-37.05-30.89-1.6-14.82,9.92-29.49,29.61-38.09-11.92-17.87-13.7-36.44-4.36-48.05s27.87-13.83,47.87-6c4.2-21.06,16.08-35.45,30.89-37.05,14.83-1.61,29.49,9.92,38.09,29.6,17.87-11.92,36.44-13.7,48.05-4.35,11.61,9.35,13.83,27.87,6,47.87,21.06,4.2,35.45,16.08,37.05,30.89h0c1.6,14.82-9.92,29.49-29.6,38.09,11.92,17.87,13.7,36.44,4.35,48.05s-27.87,13.83-47.87,6c-4.2,21.06-16.08,35.45-30.89,37.05-.91.1-1.83.15-2.74.15Zm-32.6-39.13l1.41,3.69c7.33,19.21,20.41,30.72,33.29,29.33,12.89-1.39,23.2-15.43,26.26-35.75l.59-3.9,3.6,1.61c18.76,8.4,36.14,7.3,44.28-2.8,8.13-10.1,5.5-27.32-6.71-43.85l-2.35-3.18,3.69-1.41c19.21-7.33,30.72-20.4,29.33-33.29h0c-1.39-12.89-15.43-23.2-35.76-26.26l-3.9-.59,1.61-3.6c8.4-18.76,7.3-36.14-2.8-44.28-10.1-8.13-27.31-5.5-43.85,6.71l-3.18,2.35-1.41-3.69c-7.33-19.21-20.39-30.71-33.29-29.33-12.89,1.39-23.2,15.43-26.26,35.76l-.59,3.9-3.6-1.61c-18.76-8.4-36.14-7.3-44.28,2.8-8.13,10.1-5.5,27.32,6.71,43.85l2.34,3.18-3.69,1.41c-19.21,7.33-30.72,20.4-29.33,33.29,1.39,12.89,15.43,23.2,35.76,26.27l3.9.59-1.61,3.6c-8.4,18.76-7.3,36.14,2.8,44.28,10.1,8.13,27.31,5.5,43.85-6.71l3.18-2.35Z"/>
    </g>
    <g>
      <circle class="cls-2" cx="242.83" cy="139.65" r="36.08"/>
      <path class="cls-4" d="m242.83,178.72c-21.55,0-39.08-17.53-39.08-39.08s17.53-39.08,39.08-39.08,39.08,17.53,39.08,39.08-17.53,39.08-39.08,39.08Zm0-72.15c-18.24,0-33.08,14.84-33.08,33.08s14.84,33.08,33.08,33.08,33.08-14.84,33.08-33.08-14.84-33.08-33.08-33.08Z"/>
    </g>
    <g>
      <g>
        <path class="cls-3" d="m171.09,120.77c3.01-.99,115.3-38.88,115.3-38.88"/>
        <path class="cls-4" d="m171.56,122.2l-.94-2.85c2.98-.98,114.17-38.5,115.29-38.88l.96,2.84c-1.12.38-112.33,37.9-115.31,38.88Z"/>
      </g>
      <g>
        <path class="cls-3" d="m183.51,159.65c3.01-.99,115.3-38.88,115.3-38.88"/>
        <path class="cls-4" d="m183.98,161.07l-.94-2.85c2.98-.98,114.17-38.5,115.29-38.87l.96,2.84c-1.12.38-112.33,37.9-115.31,38.88Z"/>
      </g>
      <g>
        <path class="cls-3" d="m201.88,197.4c3.01-.99,115.3-38.88,115.3-38.88"/>
        <path class="cls-4" d="m202.35,198.82l-.94-2.85c2.98-.98,114.17-38.5,115.29-38.88l.96,2.84c-1.12.38-112.33,37.9-115.31,38.88Z"/>
      </g>
      <g>
        <path class="cls-3" d="m302.7,187.2c-.99-3.02-37.2-115.86-37.2-115.86"/>
        <path class="cls-4" d="m301.28,187.67c-.98-2.99-36.84-114.74-37.2-115.87l2.86-.92c.36,1.13,36.22,112.87,37.19,115.85l-2.85.94Z"/>
      </g>
      <g>
        <path class="cls-3" d="m264.05,200.3c-.99-3.02-37.2-115.86-37.2-115.86"/>
        <path class="cls-4" d="m262.62,200.77c-.98-2.99-36.84-114.74-37.2-115.87l2.86-.92c.36,1.13,36.21,112.87,37.19,115.85l-2.85.94Z"/>
      </g>
      <g>
        <path class="cls-3" d="m222.77,207.94c-.99-3.02-37.2-115.86-37.2-115.86"/>
        <path class="cls-4" d="m221.34,208.41c-.98-2.99-36.84-114.74-37.2-115.87l2.86-.92c.36,1.13,36.21,112.87,37.19,115.85l-2.85.94Z"/>
      </g>
    </g>
  </g>
  <g>
    <path class="cls-6" d="m34.27,358.37c0-17.93,14.67-30.74,32.14-30.74,4.89,0,10.01.7,12.34,1.4,1.86.47,2.33,1.4,2.33,2.33,0,1.4-1.16,2.33-2.33,2.33-1.63,0-5.12-1.4-12.34-1.4-14.44,0-27.25,10.94-27.25,26.08,0,17.46,12.57,26.08,30.97,26.08s28.64-12.11,35.16-23.29l.93-1.63c.7-1.16,1.86-1.16,2.1-1.16,1.4,0,2.33.93,2.33,2.56,0,.23-.23.93-.47,1.4l-1.16,2.1c-.93,1.63-3.26,5.12-6.29,8.85-8.62,10.01-18.63,15.83-32.6,15.83-21.89,0-35.86-10.71-35.86-30.74Z"/>
    <path class="cls-6" d="m121.13,386.55v-43.08l-10.71,18.4c-.47.93-1.4,1.16-2.1,1.16-1.4,0-2.33-.93-2.33-2.33,0-.23,0-.93.7-2.1l14.44-24.68v-65.9c0-21.66,4.66-28.88,13.51-28.88,10.95,0,13.51,14.67,13.51,25.85,0,24.22-14.2,56.12-22.35,71.02v16.3c9.31-11.64,20.72-24.68,36.56-24.68,13.04,0,14.44,10.94,14.44,17v25.38c0,7.92,1.63,14.44,10.25,14.44,10.95,0,19.79-14.9,23.29-20.96l2.33-3.96c.7-1.16,1.63-1.16,2.1-1.16,1.4,0,2.33.93,2.33,2.33,0,.23,0,.7-.23,1.17l-1.86,3.03c-6.05,10.01-14.67,24.22-27.94,24.22-10.71,0-14.9-7.45-14.9-18.16v-26.31c0-7.92-3.03-12.34-9.78-12.34-15.6,0-27.94,15.83-36.33,27.48v26.78c0,1.4-.93,2.56-2.33,2.56-1.86,0-2.56-1.17-2.56-2.56Zm22.36-121.56c0-10.01-2.33-21.19-9.08-21.19-8.62,0-8.62,17.7-8.62,23.05v59.15c3.96-7.68,17.7-36.56,17.7-61.01Z"/>
    <path class="cls-6" d="m212.41,358.37c0-18.4,12.58-30.74,31.44-30.74,13.27,0,23.52,6.29,28.41,16.53,5.82-1.4,11.41-3.73,16.3-6.75,1.16-.7,1.63-.93,2.33-.93,1.63,0,2.33,1.16,2.33,2.33,0,.93-.47,1.63-1.17,2.1-6.52,3.96-12.57,6.29-18.16,7.68.93,3.03,1.4,6.29,1.4,9.78,0,18.4-12.58,30.74-31.44,30.74s-31.44-12.34-31.44-30.74Zm57.98,0c0-3.26-.47-6.29-1.4-9.08-2.33.47-4.66.47-6.75.47-11.41,0-22.35-3.96-22.35-13.51,0-1.4.23-2.56.93-3.73-14.21,1.4-23.52,11.64-23.52,25.85,0,15.37,10.71,26.08,26.55,26.08s26.55-10.71,26.55-26.08Zm-3.49-13.51c-3.49-6.29-8.85-10.48-17.47-12.11h-.93c-2.1,0-3.72,1.4-3.72,3.03,0,5.82,5.82,9.31,17.46,9.31,1.63,0,3.26,0,4.66-.23Z"/>
    <path class="cls-6" d="m276.45,448.26c0-15.14,14.9-29.11,28.64-40.75v-76.38c-2.1,1.86-5.12,4.19-9.78,7.68-1.4,1.16-3.03,2.33-4.42,2.33s-2.33-.93-2.33-2.33c0-.23,0-1.4,1.4-2.33,6.52-4.42,9.78-7.22,15.14-12.34v-56.12c0-21.66,4.66-28.88,13.51-28.88,10.94,0,13.51,14.67,13.51,25.85,0,22.82-10.48,47.27-22.35,61.48v77.08c15.14-12.34,25.85-24.92,33.76-38.19l3.49-5.82c.7-1.16,1.63-1.16,2.1-1.16,1.4,0,2.33,1.16,2.33,2.33,0,.23,0,.7-.23,1.17l-2.56,4.42c-11.41,19.56-26.78,34.23-38.89,43.08v35.16c0,11.64-5.36,21.89-17,21.89-9.31,0-16.3-7.45-16.3-18.16Zm28.64-3.73v-30.97c-8.62,7.22-23.75,20.26-23.75,34.46,0,8.85,5.12,13.74,11.41,13.74,8.62,0,12.34-7.68,12.34-17.23Zm22.35-179.54c0-10.01-2.33-21.19-9.08-21.19-8.62,0-8.62,17.7-8.62,23.05v51.93c6.75-8.85,17.7-31.2,17.7-53.79Z"/>
    <path class="cls-6" d="m335.36,448.26c0-15.14,14.9-29.11,28.64-40.75v-67.76l-12.81,22.12c-.47.93-1.4,1.16-2.1,1.16-1.4,0-2.33-.93-2.33-2.33,0-.23,0-.93.7-2.1l16.53-28.41v-62.17c0-21.66,4.66-28.88,13.51-28.88,10.95,0,13.51,14.67,13.51,25.85,0,22.82-14.21,52.39-22.36,66.37v72.19c15.14-12.34,25.85-24.92,33.77-38.19l3.49-5.82c.7-1.16,1.63-1.16,2.1-1.16,1.4,0,2.33,1.16,2.33,2.33,0,.23,0,.7-.23,1.17l-2.56,4.42c-11.41,19.56-26.78,34.23-38.89,43.08v35.16c0,11.64-5.36,21.89-17,21.89-9.31,0-16.3-7.45-16.3-18.16Zm28.64-3.73v-30.97c-8.62,7.22-23.75,20.26-23.75,34.46,0,8.85,5.12,13.74,11.41,13.74,8.62,0,12.34-7.68,12.34-17.23Zm22.35-179.54c0-10.01-2.33-21.19-9.08-21.19-8.62,0-8.62,17.7-8.62,23.05v54.96c3.96-7.22,17.7-34.23,17.7-56.82Z"/>
    <path class="cls-6" d="m405.22,362.56c0-14.21,8.62-34.93,24.92-34.93,7.22,0,13.97,3.96,13.97,13.97,0,12.34-16.77,20.26-34,21.42,0,15.83,11.41,21.42,21.89,21.42,15.14,0,23.98-11.64,31.2-23.75l.7-1.16c.7-1.16,1.86-1.16,2.1-1.16,1.4,0,2.33.93,2.33,2.56,0,.23-.23.93-.47,1.4l-1.16,2.1c-.93,1.86-2.1,3.73-4.89,7.45-7.22,9.78-17.7,17.23-29.11,17.23-17.46,0-27.48-10.48-27.48-26.55Zm34-20.96c0-5.12-2.79-9.31-9.08-9.31-10.48,0-18.16,13.27-19.79,25.85,12.57-.93,28.88-6.29,28.88-16.53Z"/>
  </g>
  <text class="cls-5" transform="translate(49.49 437.66)"><tspan x="0" y="0">C</tspan><tspan class="cls-1" x="24.65" y="0">off</tspan><tspan x="74.07" y="0">ee Shop</tspan></text>
</svg>